<!-- icon666.com - MILLIONS vector ICONS FREE --><svg id="Layer_2" viewBox="0 0 32 32" xmlns="http://www.w3.org/2000/svg" data-name="Layer 2"><path d="m11.22 10.55a7.26008 7.26008 0 0 0 -2.48 5.45 7.1074 7.1074 0 0 0 .1 1.14h4.5c-.07-.23-1.63-5.07-2.12-6.59z"></path><path d="m14.97 23.18 1.34-4.3h-6.97a7.28031 7.28031 0 0 0 5.63 4.3z"></path><path d="m19.74 9.79a7.23165 7.23165 0 0 0 -3.74-1.05 7.13048 7.13048 0 0 0 -3.28.8c.41 1.25.92 2.84 1.39 4.29z"></path><path d="m16.78 23.21a7.25388 7.25388 0 0 0 5.65-3.86l-3.61-2.66z"></path><path d="m17.5 13.54 5.56 4.11a6.90229 6.90229 0 0 0 .2-1.65 7.23988 7.23988 0 0 0 -2.09-5.09z"></path><path d="m16 1a15 15 0 1 0 15 15 15.00543 15.00543 0 0 0 -15-15zm0 24a9 9 0 1 1 9-9 9.01357 9.01357 0 0 1 -9 9z"></path></svg>