<svg width="40" height="40" viewBox="0 0 40 40" fill="none" xmlns="http://www.w3.org/2000/svg">
<path fill-rule="evenodd" clip-rule="evenodd" d="M4.12462 19.2857C4.12462 10.8951 11.3843 3.42863 19.7263 3.42863H20.7113C28.9317 3.42863 36.3252 10.7856 36.3252 19.0425V19.9545C36.3252 30.4489 25.0404 39.1192 13.5124 34.17C12.0288 33.5255 12.8436 33.5011 11.1776 34.0362C9.45085 34.5834 4.69616 36.2129 3.56524 36.4318C4.06382 33.9268 5.62034 30.6678 6.32564 28.1871C6.45941 27.7128 5.13393 25.2443 4.8664 24.3931C4.31919 22.642 4.12462 21.1827 4.12462 19.2857ZM39.9247 32.431C40.0584 30.9596 39.9733 29.0261 39.9733 27.4696V12.5124C39.9733 8.47517 40.3381 5.11892 37.5412 2.46796C36.1063 1.106 34.6957 0.315581 32.5069 0.0845342C31.1692 -0.0613898 14.3515 0.0358929 12.5274 0.0358929C9.0374 0.0358929 5.87571 -0.41404 3.13963 1.8721L2.17897 2.82061C1.04805 4.19473 0.281952 5.36212 0.0873866 7.5145C-0.0463771 8.8643 0.0509056 25.6456 0.0509056 27.4696C0.0509056 31.1299 -0.399027 33.1485 1.37638 36.1521C2.44649 37.964 4.61103 39.5813 7.52952 39.8975C8.85499 40.0434 25.6849 39.9461 27.4846 39.9461C29.0168 39.9461 31.0476 40.0556 32.4825 39.9218C34.185 39.7637 35.6929 39.0827 36.8846 38.1099C38.6113 36.6993 39.7301 34.778 39.9247 32.431Z" fill="white"/>
<path fill-rule="evenodd" clip-rule="evenodd" d="M12.1991 15.5768C12.1991 12.2692 15.7134 10.3114 16.5403 12.3787C16.8565 13.1812 17.5618 14.8959 17.7442 15.6498C18.0604 16.9388 16.0296 17.4252 16.4187 18.4345C17.0389 20.0518 19.325 22.2285 20.7843 23.019C22.6205 24.0161 22.353 23.8823 23.5204 22.5812C24.7364 21.2192 24.4567 21.4624 26.2443 22.3623C27.1928 22.8366 28.725 23.2014 28.5547 24.466C28.348 25.9618 27.7157 26.5211 26.6577 27.0562C24.3351 28.2479 21.7693 26.8981 19.8358 25.9496C17.2821 24.6849 12.1991 19.6019 12.1991 15.5768ZM6.82421 20.0275C6.82421 22.3501 7.7484 24.7457 8.6969 26.3387C9.58461 27.8466 9.35356 27.4332 8.73338 29.2937C8.50234 29.9868 7.82136 31.7014 7.72408 32.3581C8.68474 32.1271 9.81565 31.665 10.8006 31.3731C12.2842 30.9232 12.4058 30.4611 13.6218 31.1907C15.5189 32.3338 17.9144 32.9296 20.5532 32.9296C27.4603 32.9296 33.6256 26.8373 33.6256 19.7843V19.2128C33.6256 12.0139 27.4238 6.14041 20.2857 6.12825C13.1719 6.10393 6.82421 12.0017 6.82421 19.0425V20.0275Z" fill="white"/>
</svg>
