<svg width="40" height="40" viewBox="0 0 40 40" fill="none" xmlns="http://www.w3.org/2000/svg">
<path fill-rule="evenodd" clip-rule="evenodd" d="M17.8083 24.2414L20.7114 26.2208C20.2524 26.6511 18.3132 28.7108 17.8772 28.8084L17.8083 24.2414ZM17.4583 28.5272C17.5214 28.6936 17.5329 28.7166 17.4755 28.9059L17.292 28.8657C16.7928 28.7969 16.7182 27.9994 16.6092 27.5806C16.2707 26.3069 15.565 23.8914 15.3642 22.8472C17.3264 21.6022 19.2771 20.1793 21.2278 18.8827C22.2089 18.2229 23.1843 17.5401 24.1653 16.8746C24.6932 16.5189 26.7242 15.0329 27.166 14.9411C27.0513 15.2566 26.2136 15.8017 25.9152 16.0714C24.8768 17.018 23.2646 18.1942 22.1171 19.2097C21.4802 19.7605 17.3608 23.0652 17.0166 23.4152L17.4583 28.5272ZM23.6031 18.504C24.217 18.0393 24.9169 17.3106 25.5079 16.7885L27.4242 15.0788C27.6422 14.7288 27.2693 14.528 26.4144 15.0903C24.6817 16.2377 22.6392 17.4828 20.8721 18.5786L15.3068 22.0899C14.9626 22.3022 15.0945 22.3251 14.6872 22.1989L11.2734 21.126C10.7226 20.9481 8.72603 20.6096 9.22518 19.7433C9.51779 19.2499 11.0784 18.7565 11.6464 18.5327C16.8674 16.5017 22.1687 14.5165 27.3611 12.474C28.2102 12.1412 29.1167 11.7626 29.9716 11.4642C30.465 11.2921 30.9641 11.3954 31.2223 11.8831C31.469 12.365 31.3084 12.956 31.1994 13.4494L28.0323 28.3838C27.8201 29.3821 27.5045 30.5066 26.1964 29.8181C25.8636 29.6403 18.2444 24.0234 17.8714 23.6734L23.6031 18.504ZM0.0338865 32.8532C0.137159 35.4293 1.60019 37.7472 3.83204 39.0266C5.16311 39.7955 6.33928 39.979 7.85968 39.979H27.8545C29.4839 39.979 31.2166 40.0307 32.8345 39.9676C35.4221 39.87 37.7343 38.407 39.0252 36.1694C39.794 34.8383 39.9776 33.6564 39.9776 32.136V12.147C39.9776 10.5176 40.035 8.78487 39.9661 7.16693C39.8628 4.5851 38.4113 2.25572 36.168 0.97055C34.8312 0.20174 33.6722 0.0238809 32.1403 0.0181435L12.1455 0.0238809C10.5104 0.0238809 8.78914 -0.033493 7.16546 0.0296183C4.5779 0.132891 2.25999 1.59593 0.974818 3.82777C0.206008 5.15884 0.0224117 6.34648 0.0166743 7.86115L0.0224117 27.8559C0.0224117 29.4911 -0.0349622 31.2238 0.0338865 32.8532Z" fill="white"/>
</svg>
