<svg width="40" height="40" viewBox="0 0 40 40" fill="none" xmlns="http://www.w3.org/2000/svg">
<path fill-rule="evenodd" clip-rule="evenodd" d="M26.9066 20.7805C30.1074 23.6582 32.0262 24.3732 33.1687 29.117L28.6073 29.1258C26.8717 25.9778 26.0257 23.7715 22.0399 23.3355L21.9178 28.9775C12.2542 30.1722 6.79448 21.234 6.85553 12.6271L11.2687 12.5573C11.8443 16.5512 12.6554 23.2832 17.4262 23.789L17.5047 12.6271L21.8917 12.5922L21.9876 19.0016C25.6856 18.1906 26.5926 15.1647 28.2148 12.5835L32.2181 12.6097C31.6773 16.1675 29.462 18.6877 26.9066 20.7805ZM11.0943 0.322865C4.21288 0.950722 1.09053 2.20643 0.410238 9.67966C-0.0956179 15.1385 -0.130505 23.4663 0.288134 28.9426C0.785268 35.5874 2.16329 38.8662 9.27143 39.5987C15.0713 40.1917 23.1737 40.0348 29.0521 39.7208C35.4102 39.3807 38.9686 37.3489 39.614 30.6518C40.1722 24.7744 40.0501 16.8302 39.7187 10.9005C39.3349 3.96792 37.4249 1.05536 30.2993 0.401347C24.9966 -0.0782647 16.3534 -0.156747 11.0943 0.322865Z" fill="white"/>
</svg>
