<svg width="130" height="27" viewBox="0 0 130 27" fill="none" xmlns="http://www.w3.org/2000/svg">
<g clip-path="url(#clip0_3_125)">
<path fill-rule="evenodd" clip-rule="evenodd" d="M59.0403 5.96827C57.004 5.54697 54.4938 6.79332 53.4932 7.89924C52.8086 8.63652 52.2293 8.42587 52.0186 7.75881C51.5271 6.12626 53.0719 1.68503 57.0567 3.21225C58.935 3.93198 59.8127 5.28366 60.1638 6.03849C59.9531 5.96827 59.7249 5.91561 59.4967 5.91561C59.3387 5.91561 59.1808 5.93317 59.0403 5.96827ZM57.5482 7.68859C56.7232 9.23337 56.0561 11.6207 56.4598 12.8495C57.0918 14.7103 54.722 14.5348 53.423 13.0075C52.4224 11.8138 52.0888 9.70733 54.1427 7.75881C55.7928 6.19648 57.6886 6.17893 58.4084 6.24914C57.9344 6.56512 57.6009 7.09175 57.5482 7.68859ZM58.1977 9.35625C58.461 10.0935 58.9526 10.743 59.2685 11.1643C60.7606 13.2006 63.7098 12.7091 63.0954 14.4119C62.4985 16.0971 57.478 17.4839 56.7407 12.516C56.4598 10.585 57.162 9.19826 57.636 8.49609C57.7413 8.82962 57.9344 9.12804 58.1977 9.35625ZM60.0409 9.76C61.8666 9.93554 64.6401 9.39136 65.4301 8.25033C65.6583 7.89924 65.8865 7.68859 66.0971 7.61838C67.01 7.28484 67.5541 9.23337 66.9749 10.8659C66.4658 12.3405 64.6752 13.5868 61.9894 12.6565C59.9531 11.9543 59.0579 10.4095 58.7243 9.68978C58.9701 9.7951 59.2159 9.84777 59.4967 9.84777C59.6898 9.84777 59.8654 9.81266 60.0409 9.76ZM61.4453 8.145C62.4283 6.82843 62.9725 4.95013 62.8145 3.77399C62.7443 3.17714 62.3932 2.21166 62.5687 2.01856C63.7449 0.666883 68.9936 5.30121 64.763 8.37321C63.1305 9.5669 61.5155 9.54935 60.6904 9.44402C61.0942 9.12804 61.375 8.67163 61.4453 8.145ZM60.9537 6.56512C60.4447 5.0379 58.8999 3.79154 57.8817 3.21225C56.7232 2.52764 55.4944 2.73829 55.2486 2.45742C54.7571 1.91324 57.3376 0.210472 58.6717 0.0524835C60.7255 -0.210831 62.0421 0.473786 62.4459 3.54578C62.7092 5.54697 61.9368 6.96887 61.4453 7.61838C61.3926 7.23218 61.2171 6.86354 60.9537 6.56512Z" fill="#FEFEFE" fill-opacity="0.6"/>
<path d="M41.3983 23.2769C41.3983 23.7509 41.2227 24.1722 40.8892 24.5057C40.5557 24.8393 40.1519 24.9973 39.678 24.9973C39.2215 24.9973 38.8354 24.8393 38.5018 24.5409V26.7878H37.9576V21.6971H38.5018V22.013C38.8354 21.7146 39.2215 21.5566 39.678 21.5566C40.1519 21.5566 40.5557 21.7322 40.8892 22.0657C41.2227 22.3992 41.3983 22.803 41.3983 23.2769ZM40.8541 23.2769C40.8541 22.961 40.7312 22.6801 40.503 22.4519C40.2748 22.2237 39.9939 22.1184 39.678 22.1184C39.362 22.1184 39.0811 22.2237 38.8529 22.4519C38.6247 22.6801 38.5018 22.961 38.5018 23.2769C38.5018 23.6105 38.6247 23.8913 38.8529 24.102C39.0811 24.3302 39.362 24.4531 39.678 24.4531C39.9939 24.4531 40.2748 24.3302 40.503 24.102C40.7312 23.8738 40.8541 23.6105 40.8541 23.2769ZM45.3831 24.8568H44.8389V23.2769C44.8389 22.961 44.716 22.6801 44.4878 22.4519C44.2596 22.2237 43.9963 22.1184 43.6628 22.1184C43.3468 22.1184 43.0659 22.2237 42.8377 22.4519C42.6095 22.6801 42.5042 22.961 42.5042 23.2769V24.8568H41.9425V19.0288H42.5042V22.0306C42.8202 21.7146 43.2064 21.5566 43.6628 21.5566C44.1367 21.5566 44.5405 21.7322 44.874 22.0657C45.2076 22.3992 45.3831 22.803 45.3831 23.2769V24.8568ZM49.3679 23.2769C49.3679 23.7509 49.2099 24.1722 48.8764 24.5057C48.5253 24.8393 48.1216 24.9973 47.6476 24.9973C47.1736 24.9973 46.7699 24.8393 46.4364 24.5057C46.1028 24.1722 45.9273 23.7509 45.9273 23.2769C45.9273 22.803 46.1028 22.3992 46.4364 22.0657C46.7699 21.7322 47.1736 21.5566 47.6476 21.5566C48.1216 21.5566 48.5253 21.7322 48.8764 22.0657C49.2099 22.3992 49.3679 22.803 49.3679 23.2769ZM48.8237 23.2769C48.8237 22.961 48.7009 22.6801 48.4727 22.4519C48.2444 22.2237 47.9811 22.1184 47.6476 22.1184C47.3316 22.1184 47.0508 22.2237 46.8225 22.4519C46.5943 22.6801 46.489 22.961 46.489 23.2769C46.489 23.6105 46.5943 23.8913 46.8225 24.102C47.0508 24.3302 47.3316 24.4531 47.6476 24.4531C47.9811 24.4531 48.2444 24.3302 48.4727 24.102C48.7009 23.8738 48.8237 23.6105 48.8237 23.2769ZM51.5622 21.6971H51.018V24.8568H50.4738V21.6971H49.9121V21.1529H50.4738V19.5028H51.018V21.1529H51.5622V21.6971ZM55.547 23.2769C55.547 23.7509 55.389 24.1722 55.0555 24.5057C54.722 24.8393 54.3182 24.9973 53.8443 24.9973C53.3527 24.9973 52.949 24.8393 52.6155 24.5057C52.2819 24.1722 52.1239 23.7509 52.1239 23.2769C52.1239 22.803 52.2819 22.3992 52.6155 22.0657C52.949 21.7322 53.3527 21.5566 53.8443 21.5566C54.3182 21.5566 54.722 21.7322 55.0555 22.0657C55.389 22.3992 55.547 22.803 55.547 23.2769ZM55.0028 23.2769C55.0028 22.961 54.8975 22.6801 54.6693 22.4519C54.4411 22.2237 54.1602 22.1184 53.8443 22.1184C53.5107 22.1184 53.2299 22.2237 53.0017 22.4519C52.7734 22.6801 52.6681 22.961 52.6681 23.2769C52.6681 23.6105 52.7734 23.8913 53.0017 24.102C53.2299 24.3302 53.5107 24.4531 53.8443 24.4531C54.1602 24.4531 54.4411 24.3302 54.6693 24.102C54.8975 23.8738 55.0028 23.6105 55.0028 23.2769ZM59.5494 25.2079C59.5494 25.6819 59.3739 26.0856 59.0403 26.4192C58.7068 26.7527 58.303 26.9282 57.8291 26.9282C57.3727 26.9282 56.9865 26.7702 56.6529 26.4718L57.0391 26.0856C57.2673 26.2787 57.5307 26.384 57.8291 26.384C58.1451 26.384 58.4259 26.2612 58.6541 26.033C58.8823 25.8048 58.9877 25.5239 58.9877 25.2079V24.5409C58.6541 24.8568 58.2679 24.9973 57.8291 24.9973C57.3376 24.9973 56.9338 24.8393 56.6003 24.5057C56.2667 24.1722 56.1088 23.7509 56.1088 23.2769C56.1088 22.803 56.2667 22.3992 56.6003 22.0657C56.9338 21.7322 57.3376 21.5566 57.8291 21.5566C58.2679 21.5566 58.6541 21.7146 58.9877 22.0306V21.6971H59.5494V25.2079ZM58.9877 23.2769C58.9877 22.961 58.8823 22.6801 58.6541 22.4519C58.4259 22.2237 58.1451 22.1184 57.8291 22.1184C57.4955 22.1184 57.2147 22.2237 57.004 22.4519C56.7758 22.6801 56.6529 22.961 56.6529 23.2769C56.6529 23.6105 56.7758 23.8913 57.004 24.102C57.2147 24.3302 57.4955 24.4531 57.8291 24.4531C58.1451 24.4531 58.4259 24.3302 58.6541 24.102C58.8823 23.8738 58.9877 23.6105 58.9877 23.2769ZM61.8139 22.1184C61.4804 22.1184 61.2171 22.2237 60.9888 22.4519C60.7606 22.6801 60.6378 22.961 60.6378 23.2769V24.8568H60.0936V21.6971H60.6378V22.0306C60.9713 21.7146 61.3575 21.5566 61.8139 21.5566V22.1184ZM65.7987 24.8568H65.2545V24.5409C64.921 24.8568 64.5348 24.9973 64.0784 24.9973C63.6044 24.9973 63.2007 24.8393 62.8672 24.5057C62.5336 24.1722 62.3581 23.7509 62.3581 23.2769C62.3581 22.803 62.5336 22.3992 62.8672 22.0657C63.2007 21.7322 63.6044 21.5566 64.0784 21.5566C64.5348 21.5566 64.921 21.7146 65.2545 22.0306V21.6971H65.7987V24.8568ZM65.2545 23.2769C65.2545 22.961 65.1317 22.6801 64.9035 22.4519C64.6928 22.2237 64.4119 22.1184 64.0784 22.1184C63.7624 22.1184 63.4816 22.2237 63.2533 22.4519C63.0251 22.6801 62.9198 22.961 62.9198 23.2769C62.9198 23.6105 63.0251 23.8913 63.2533 24.102C63.4816 24.3302 63.7624 24.4531 64.0784 24.4531C64.4119 24.4531 64.6752 24.3302 64.9035 24.102C65.1317 23.8738 65.2545 23.6105 65.2545 23.2769ZM69.7835 23.2769C69.7835 23.7509 69.6255 24.1722 69.292 24.5057C68.9585 24.8393 68.5547 24.9973 68.0632 24.9973C67.6244 24.9973 67.2382 24.8393 66.9046 24.5409V26.7878H66.3605V21.6971H66.9046V22.013C67.2382 21.7146 67.6244 21.5566 68.0632 21.5566C68.5547 21.5566 68.9585 21.7322 69.292 22.0657C69.6255 22.3992 69.7835 22.803 69.7835 23.2769ZM69.2394 23.2769C69.2394 22.961 69.134 22.6801 68.9058 22.4519C68.6776 22.2237 68.3967 22.1184 68.0632 22.1184C67.7472 22.1184 67.4664 22.2237 67.2382 22.4519C67.01 22.6801 66.9046 22.961 66.9046 23.2769C66.9046 23.6105 67.01 23.8913 67.2382 24.102C67.4664 24.3302 67.7472 24.4531 68.0632 24.4531C68.3967 24.4531 68.6776 24.3302 68.9058 24.102C69.134 23.8738 69.2394 23.6105 69.2394 23.2769ZM73.7684 24.8568H73.2242V23.2769C73.2242 22.961 73.1188 22.6801 72.8906 22.4519C72.6624 22.2237 72.3816 22.1184 72.0656 22.1184C71.7321 22.1184 71.4512 22.2237 71.223 22.4519C70.9948 22.6801 70.8895 22.961 70.8895 23.2769V24.8568H70.3453V19.0288H70.8895V22.0306C71.223 21.7146 71.6092 21.5566 72.0656 21.5566C72.5396 21.5566 72.9433 21.7322 73.2768 22.0657C73.6104 22.3992 73.7684 22.803 73.7684 23.2769V24.8568ZM77.7707 23.2769C77.7707 23.3823 77.7532 23.47 77.7356 23.5578H74.9094C74.9796 23.8211 75.12 24.0318 75.3307 24.2073C75.5238 24.3653 75.7695 24.4531 76.0504 24.4531C76.3488 24.4531 76.5946 24.3478 76.8228 24.1547L77.209 24.5409C76.8755 24.8568 76.4893 24.9973 76.0504 24.9973C75.5764 24.9973 75.1551 24.8393 74.8216 24.5057C74.4881 24.1722 74.3301 23.7509 74.3301 23.2769C74.3301 22.803 74.4881 22.3992 74.8216 22.0657C75.1551 21.7322 75.5764 21.5566 76.0504 21.5566C76.5244 21.5566 76.9281 21.7322 77.2617 22.0657C77.5952 22.3992 77.7707 22.803 77.7707 23.2769ZM77.1739 23.0136C77.1212 22.7503 76.9808 22.5221 76.7701 22.3641C76.5595 22.2061 76.3137 22.1184 76.0504 22.1184C75.7695 22.1184 75.5238 22.1886 75.3307 22.3641C75.12 22.5221 74.9796 22.7503 74.9094 23.0136H77.1739ZM80.0352 22.1184C79.7017 22.1184 79.4384 22.2237 79.2102 22.4519C78.982 22.6801 78.8591 22.961 78.8591 23.2769V24.8568H78.3149V21.6971H78.8591V22.0306C79.1926 21.7146 79.5788 21.5566 80.0352 21.5566V22.1184Z" fill="#FEFEFE" fill-opacity="0.6"/>
<path d="M5.86843 15.9565C6.06153 15.7107 6.62327 15.2894 6.44772 14.5872C6.30729 14.5521 6.65837 14.1308 6.53549 14.0606C6.43017 13.9377 5.86843 14.3239 5.78066 14.3239C5.55245 14.4117 4.95561 14.6048 4.88539 14.7101C3.76192 15.0788 2.67355 15.307 1.44475 15.5527H1.25166C1.28677 15.2543 1.39209 15.0788 1.58519 14.7803L1.69051 14.675L1.72562 14.0957C1.83095 13.7973 1.93627 12.5861 1.86606 12.3052C1.86606 12.1121 1.98894 11.919 1.98894 11.6206C2.11182 11.6206 2.11182 11.6206 2.18203 11.5152L3.09486 11.2519C3.39328 11.1817 3.6917 11.0939 3.99012 10.9008L5.39447 10.4269C5.49979 10.3391 5.49979 10.3391 5.49979 10.2513C5.60512 10.1285 5.71044 10.0582 5.71044 9.84758C5.74555 9.74226 5.74555 9.63693 5.64023 9.54916C5.5349 9.44383 5.44713 9.44383 5.3418 9.44383C4.86784 9.42628 3.65659 9.79492 3.25285 9.86514C2.93687 9.97046 2.53312 10.146 2.12937 10.2338H1.93627C1.93627 10.1285 1.86606 9.9178 1.86606 9.81247C1.77829 9.42628 1.69051 9.02253 1.72562 8.53101C1.72562 8.33792 1.72562 8.23259 1.55008 8.10971C1.56763 7.74107 1.81339 6.79314 1.6203 6.40695C1.72562 6.40695 1.8485 6.30162 1.91872 6.33673C2.63845 6.14363 3.41083 6.14363 4.113 6.07341L4.99072 6.10852C5.30669 6.10852 5.49979 6.12608 5.60512 5.93298C5.74555 5.54679 5.64023 5.05527 5.3418 4.84462C5.25403 4.73929 5.06094 4.61641 4.95561 4.61641C4.37632 4.49353 3.37572 4.51108 2.77888 4.59886C2.26981 4.68663 1.88361 4.7744 1.37454 4.84462C0.953235 4.91483 0.251064 5.0026 0.303727 5.3888C0.321281 5.49412 0.391498 5.59945 0.496824 5.75744C0.60215 5.86276 0.725029 5.98564 0.918126 6.12608L0.900572 6.52983C0.883018 7.19689 0.725029 7.81129 0.689921 8.58368C0.549487 9.18052 0.426607 9.86514 0.409053 10.462C0.286173 11.0588 0.251064 12.4456 0.145738 12.9371C0.128184 13.3409 0.11063 13.7095 0.00530422 14.1133C-0.0122501 14.3064 0.180847 15.5001 0.057967 15.6756C0.163293 15.7985 0.251064 15.9038 0.23351 16.0091C0.198401 16.7113 1.81339 16.7464 2.11182 16.7815C2.69111 16.6937 3.20018 16.8342 3.79703 16.6586L4.79762 16.3953C5.06094 16.3076 5.76311 16.1145 5.86843 15.9565ZM9.87081 12.7089C9.90592 12.1472 9.92347 11.7434 9.97613 11.2519C10.0112 10.9184 10.0288 10.5849 10.0639 10.2338C10.099 9.60182 10.1692 9.0752 10.2043 8.4608C10.2746 8.17993 10.257 7.98683 10.2394 7.72352C10.2219 7.56553 10.2219 7.44265 10.1166 7.28466C10.1166 7.16178 10.0463 7.09156 9.99369 7.09156C9.78304 7.09156 9.6426 7.09156 9.50217 7.16178C9.43195 7.16178 8.50157 7.24955 8.46646 7.37243C8.37869 7.37243 8.37869 7.44265 8.30848 7.56553C8.27337 7.79373 8.15049 7.98683 8.16804 8.17993C7.97494 9.1103 7.65897 9.9178 7.30788 10.8306C7.02701 11.445 7.09723 11.4801 6.55305 12.5158C6.51794 12.5861 6.48283 12.6563 6.41261 12.7967L6.43017 12.9196C6.44772 13.0776 6.51794 13.1302 6.58816 13.1302C6.72859 13.1302 6.71104 13.0776 6.79881 13.0249C6.97435 12.8318 6.85147 12.9722 7.04457 12.6212C7.07968 12.5685 7.25522 12.2525 7.25522 12.1823C7.29033 12.0243 7.3781 11.9892 7.44832 11.9014C7.74674 11.287 7.93984 10.62 8.23826 9.97046C8.23826 9.97046 8.11538 10.9359 8.1856 11.0062C8.13293 11.2168 8.20315 11.4977 8.13293 11.7083C8.09782 11.9014 8.02761 12.1823 8.04516 12.393C7.95739 13.0074 7.92228 13.534 7.83451 14.1835C7.78185 14.517 7.72918 14.7979 7.71163 15.1139C7.72918 15.5527 7.67652 15.9565 7.62386 16.29C7.78185 16.5709 7.86962 16.9922 8.02761 17.2555C8.23826 17.2555 8.23826 17.2555 8.36114 17.1853C8.44891 17.1853 8.44891 17.3433 8.50157 17.3433L8.58934 17.1853C8.65956 17.1326 8.64201 17.0975 8.72978 17.0975C8.78244 17.1853 9.53728 17.0975 9.51972 16.9922C9.50217 16.7815 9.48461 16.5007 9.55483 16.29C9.58994 15.8863 9.6426 15.307 9.67771 14.9032C9.71282 14.6223 9.76548 14.4117 9.85325 14.2186C9.95858 14.0079 10.0639 13.7973 10.2043 13.5164C10.2746 13.376 10.2746 13.3233 10.3974 13.2531V13.376C10.4852 13.5164 10.4852 13.6042 10.5028 13.7271C10.573 14.0606 10.6432 14.4117 10.7836 14.7628C10.9943 15.3421 11.2927 15.6756 11.6438 15.816C11.9422 15.9565 12.0651 15.9916 12.3284 15.8511C12.5215 15.8511 12.7322 15.7107 12.9253 15.5703V15.5176C13.1008 15.3245 13.2237 14.9032 13.4343 14.7101C13.5396 14.6223 13.6099 14.4468 13.645 14.2537V14.1133C13.7679 13.9904 14.154 12.9196 14.1892 12.6914C14.2594 12.4983 14.2769 12.2701 14.312 12.1999C14.3998 12.0068 14.2945 11.8663 14.2945 11.7259C14.2243 11.6557 14.154 11.6557 14.1014 11.7786C14.1014 11.919 13.9961 12.0068 13.9961 12.0594C13.9258 12.1999 13.961 12.2701 13.9083 12.3403C13.645 12.8143 13.1183 14.3239 12.7322 14.6223C12.4688 14.7628 12.2406 14.0606 12.0826 13.6744C11.9071 13.2531 11.7667 12.5861 11.6087 12.1647C11.5209 11.8839 11.5385 12.0243 11.4682 11.7434C11.398 11.6732 11.3805 11.5855 11.3103 11.5328C11.3103 11.5328 11.24 11.5328 11.24 11.4626C11.3454 11.129 11.5209 10.8482 11.714 10.5849C11.872 10.4444 11.9773 10.2338 12.03 10.0758C12.4162 9.47894 12.4864 9.40873 12.855 8.93476C12.9253 8.8821 12.9779 8.79433 12.9779 8.74166C13.0657 8.65389 13.1008 8.51346 13.2412 8.51346C13.2412 8.60123 13.2412 8.60123 13.3466 8.65389C13.3992 8.74166 13.4694 8.74166 13.4694 8.74166C13.5396 8.74166 13.5396 8.65389 13.6274 8.65389C13.645 8.37302 13.6274 8.10971 13.487 7.98683C13.1886 7.77618 12.7848 7.70596 12.5039 7.89906C12.3635 7.89906 12.3109 8.05705 12.188 8.10971C11.9773 8.32036 11.8895 8.4959 11.6965 8.77677C11.3278 9.33851 11.3805 9.47894 11.0118 10.1636C10.9592 10.2338 10.9767 10.4444 10.8363 10.4971C10.7134 10.6902 10.6432 10.9711 10.5554 11.2519C10.3623 11.6732 10.1868 12.077 9.99369 12.4807C9.99369 12.5685 9.94102 12.5685 9.87081 12.7089ZM20.4034 11.8488C20.298 11.7786 20.0172 11.9014 20.0172 12.0068C19.6836 12.6738 19.3677 13.1829 19.0341 13.7797C18.9639 13.9026 18.9464 14.0606 18.7884 14.1659C18.7884 13.9728 18.7708 13.7622 18.7708 13.6744C18.7708 13.1127 18.8761 12.5861 18.8761 11.9892C18.8761 11.8839 18.8761 11.7786 18.8761 11.6908C18.9815 11.1817 19.0692 10.6902 19.1746 10.1987C19.1746 9.90025 19.2799 9.60182 19.0692 9.3034C19.1746 9.1103 18.9815 9.00498 18.8761 8.91721C18.7708 8.91721 18.6831 8.91721 18.5777 8.81188C18.2793 8.70656 18.0862 8.70656 17.7878 8.91721C17.7878 9.21563 17.6825 9.4965 17.6825 9.79492C17.6825 10.0056 17.6825 10.1987 17.5947 10.3918C17.4894 10.6902 17.384 10.7955 17.384 11.1817C17.384 11.1817 17.384 11.287 17.2963 11.3924C17.2963 11.5855 17.1909 11.9892 17.0856 12.077C16.6994 12.7791 16.4888 13.4287 16.1026 13.9377C15.9972 14.0255 15.9095 14.1308 15.6988 14.2362C15.6111 14.3239 15.2073 14.2362 15.2073 14.0255C15.102 13.6393 15.2073 13.6393 15.2073 13.1478C15.4004 13.0425 15.4004 12.8494 15.4004 12.6387C15.5057 12.3403 15.6988 11.6908 15.8042 11.3924C15.9095 11.287 15.9972 11.1817 15.9972 11.0939C16.1903 10.7955 16.2957 10.1987 16.5941 9.90025C16.5941 9.90025 16.717 9.7247 16.8047 9.61938C16.8047 9.32096 17.0856 9.14541 17.2963 8.93476C17.2963 8.84699 17.7176 8.54857 17.8229 8.54857C17.9107 8.54857 18.1389 8.4959 18.2266 8.4959C18.1389 8.09216 17.8053 7.8815 17.4016 7.79373C17.3138 7.79373 17.2436 7.75863 17.1032 7.70596C17.0154 7.6533 16.4537 7.81129 16.3483 7.91661C16.243 8.02194 15.8393 8.30281 15.7339 8.39058C15.3477 8.89965 15.1371 9.21563 14.8387 9.70715C14.4525 10.3918 14.3823 10.4971 14.1892 11.287C13.9785 11.6908 13.8381 12.744 13.9434 13.2356C13.9434 13.6393 14.2243 14.4468 14.5051 14.7452C14.8913 15.1841 15.5408 15.3245 16.1377 14.9208C16.3308 14.833 16.4361 14.6223 16.5239 14.5346C16.6292 14.4292 16.8925 14.3239 16.8925 14.1308C16.9978 14.0255 17.0856 13.9377 17.1909 13.7271C17.1909 13.7271 17.1909 13.7271 17.2963 13.6393C17.2963 13.7271 17.2963 13.7271 17.2963 13.8324C17.2963 14.2362 17.2963 14.6223 17.1909 15.1139C17.1909 15.1139 17.1909 15.2192 17.1909 15.3245C17.1909 15.4123 17.2963 15.6229 17.384 15.6229C17.5947 15.7107 17.6825 15.816 17.7878 15.9214C17.7878 16.0091 17.8756 16.0091 17.8756 16.0091C18.0862 16.29 18.6831 15.7985 18.6831 15.5176C18.6831 15.4123 18.7708 15.3245 18.8761 15.2192C18.9815 15.0261 18.9639 15.0963 19.0517 14.8857C19.157 14.7979 19.2623 14.6926 19.2623 14.5872C19.3501 14.4995 19.6134 13.9904 19.6134 13.7797C19.8241 13.4813 19.947 13.2882 20.0523 12.9898C20.1401 12.8845 20.298 12.3227 20.4034 12.235C20.4911 12.0243 20.4385 11.8663 20.4034 11.8488ZM24.0196 7.05645C24.2478 6.93357 24.5988 6.79314 24.3706 6.56493C24.002 6.30162 23.2296 6.40695 22.7732 6.24896C22.6503 6.30162 22.387 6.2314 22.1939 6.2314L22.2992 5.82765C22.3694 5.31858 22.4748 5.03771 22.5625 4.54619C22.6328 4.24777 22.7205 3.86158 22.7908 3.56315C22.8961 3.3525 22.8961 3.15941 22.6679 2.96631L21.9833 3.10674C21.7902 3.10674 21.6848 3.10674 21.7024 3.31739C21.7024 3.40517 21.5971 3.51049 21.5093 3.70359C21.404 3.80891 21.2986 3.89669 21.3337 4.10734C21.3337 4.40576 21.088 4.70418 21.1055 5.0026C21.1055 5.09038 21.088 5.21326 21.1055 5.30103C21.0002 5.40635 21.0002 5.51168 21.0002 5.59945C20.8598 5.95053 20.8071 5.98564 20.772 6.24896C20.3858 6.16119 20.2454 6.26651 19.9118 6.33673C19.8065 6.40695 19.6661 6.44205 19.5608 6.63515L19.7714 7.14423C19.9645 7.24955 20.1576 7.19689 20.5614 7.19689L20.4034 8.12726C20.1752 9.44383 20.1401 9.61938 20.0874 10.7429C20.0523 11.7434 19.9996 13.5164 20.3683 14.517C20.3683 14.7101 20.4736 15.1139 20.614 15.307C20.7369 15.7985 21.2109 15.8863 21.6322 16.0793C21.8253 16.1847 22.0359 16.1847 22.1939 15.9565C22.2992 15.8687 22.387 15.7634 22.387 15.6756L22.3694 15.5703C22.4748 15.3772 22.7556 15.0612 22.9312 14.8506V14.7803C23.7738 13.1302 24.6164 11.3573 24.4057 11.1466C24.2829 10.62 23.8791 11.5503 23.8791 11.5503C23.8791 11.5503 23.4578 12.7616 22.5625 14.3766C22.4221 14.359 22.0535 14.4644 22.0008 13.5164C21.9657 12.5334 21.8604 12.0945 21.9306 11.1993V11.1115C22.0008 10.8131 22.0008 10.62 21.8955 10.4093L21.8604 10.2162C21.8428 9.61938 21.9657 8.63634 22.0359 8.03949L22.1237 7.93417C22.0008 7.53042 22.0886 7.40754 22.1588 7.10912C22.1588 6.91602 22.3343 6.96868 22.387 7.00379C22.8434 6.98624 22.6854 7.02135 23.1067 7.02135C23.2121 7.05645 23.3525 7.00379 23.3525 7.00379C23.5105 7.10912 23.5982 7.14423 23.7738 7.00379C23.7738 7.00379 23.9669 7.10912 24.0196 7.05645ZM23.7738 13.1478C23.7913 13.2531 23.8616 13.6393 23.8616 13.7271C24.2126 14.5872 24.5813 15.1841 25.5819 15.3421C25.5819 15.4298 26.1963 15.4123 26.3016 15.3947C26.4947 15.3947 26.8633 15.0963 27.074 15.0788C27.3549 14.9559 27.6533 14.833 27.9342 14.6223C28.5486 13.9377 29.4789 12.4456 29.4789 11.8839C29.4789 11.8137 29.4614 11.7434 29.4263 11.7259C29.3385 11.603 29.2683 11.6908 29.1805 11.7434C29.0752 11.919 29.005 12.1823 28.847 12.4456C28.6188 12.8845 28.3555 13.3935 28.2501 13.4989C28.1448 13.6393 27.9868 13.7973 27.7762 13.9202C27.4251 14.0957 27.3549 14.3239 26.916 14.4292C26.6176 14.4995 26.5474 14.5346 26.3367 14.5346C25.9505 14.4644 25.7048 14.2713 25.5819 13.8851C25.3712 13.692 25.459 13.4813 25.459 13.3935C25.3361 13.1127 25.3888 12.7967 25.4063 12.5861C26.0383 12.4632 26.5825 12.0243 27.0564 11.603C27.5304 11.1817 27.8815 10.6551 28.1448 10.1285C28.3203 9.83003 28.3203 9.53161 28.3028 9.33851C28.3028 9.23318 28.2677 9.14541 28.2677 9.04009C28.373 8.93476 28.2677 8.84699 28.2677 8.74166C28.1624 8.65389 28.057 8.54857 27.9517 8.47835C27.4251 8.19748 27.0389 8.03949 26.442 8.05705C26.2489 7.98683 25.8452 8.09216 25.6521 8.19748C25.459 8.32036 25.3712 8.40813 25.1781 8.63634C24.8973 8.84699 24.8095 9.04009 24.6339 9.37362C24.1775 10.1811 23.7562 10.9886 23.7738 11.8839C23.7036 11.9892 23.6509 12.4456 23.7738 13.1478ZM25.4063 11.7961C25.4063 11.7961 25.4063 11.7961 25.4063 11.7083C25.4766 11.4977 25.4414 11.1993 25.6345 10.9008C25.775 10.4971 25.9681 9.98802 26.2489 9.67204C26.4245 9.47894 26.5298 9.33851 26.5825 9.23318C26.6878 9.14541 26.8809 9.02253 26.9862 9.02253C27.0915 9.00498 27.0915 9.00498 27.1793 9.00498C27.2846 9.1103 27.0915 9.28585 27.1267 9.58427C27.1267 9.68959 27.1442 9.88269 27.0389 9.98802C26.8633 10.1987 26.8809 10.5146 26.7229 10.7253C26.4245 10.9535 26.4245 11.1642 26.0383 11.3748C25.8627 11.5855 25.7048 11.6908 25.4063 11.7961ZM34.1659 12.2701C34.1659 12.1647 34.2537 12.2701 34.1659 12.1647C34.1659 12.077 33.9728 11.8839 33.8324 12.1121C33.7446 12.1823 33.6217 12.5509 33.4286 12.9196C33.1653 13.3935 32.8669 14.0079 32.6914 14.2713C32.3227 14.7979 32.0243 14.9734 31.7961 14.7628L31.7434 14.6048C31.8488 14.1133 31.8488 13.7095 31.9365 13.3233C32.1472 12.7265 32.3403 12.235 32.5334 11.6381C32.5334 11.445 32.6387 11.2344 32.6387 11.0413C32.6387 10.8482 32.6387 10.6375 32.744 10.4444C32.744 10.2513 32.744 10.0582 32.6387 9.84758C32.5334 9.75981 32.5334 9.75981 32.4456 9.65449C32.0419 9.46139 31.6381 9.25074 31.2519 9.05764C31.1466 9.05764 31.0588 9.05764 30.9535 8.95232C31.0588 8.95232 31.0588 8.86454 31.0588 8.86454C31.1466 8.56612 31.2519 8.37302 31.3572 8.16237C31.445 7.96928 31.445 7.77618 31.445 7.56553C31.445 7.47776 31.5503 7.37243 31.445 7.26711C31.2519 7.17933 31.2519 6.96868 31.0588 6.96868H30.9535C30.7604 6.96868 30.6551 6.96868 30.5497 6.96868C30.2513 7.07401 30.1635 7.17933 30.0582 7.37243C29.9529 7.77618 29.7598 8.09216 29.8651 8.47835C29.9529 8.58368 29.9704 9.00498 30.1635 9.23318C29.9529 9.74226 29.5491 10.9359 28.9523 12.2525C28.8294 12.4456 28.7768 12.6212 28.9699 12.8318C29.2683 12.7265 29.4438 12.2525 29.5491 12.0419C29.6545 11.8488 30.462 9.75981 30.5497 9.54916C30.7604 9.65449 30.9535 9.75981 31.1466 9.84758C31.1466 9.95291 31.1466 10.0582 31.1466 10.0582C30.9535 10.7429 30.7604 11.3397 30.5497 11.9365C30.3566 12.5334 30.1635 13.0249 30.0582 13.5164C29.9529 13.8148 29.9529 14.2186 29.9529 14.517C29.8651 14.7101 29.9529 14.8154 29.9529 14.9032C30.0582 15.0085 30.1635 15.1139 30.2513 15.2016C30.2513 15.307 30.3566 15.3947 30.462 15.5001C30.462 15.6054 30.462 15.6054 30.5497 15.6054C30.7604 15.6932 30.9535 15.7985 31.1466 15.7985C31.2519 15.7985 31.3572 15.7985 31.445 15.7985C31.6381 15.7985 31.7434 15.7985 31.9365 15.6932C32.235 15.6054 32.7616 15.0612 32.9371 14.7277C32.9722 14.6575 33.376 13.8851 33.4813 13.7797C33.5866 13.692 34.0255 12.6212 34.1308 12.4281C34.1308 12.3227 34.1659 12.2876 34.1659 12.2876V12.2701ZM30.5497 8.10971C30.462 7.81129 30.462 7.56553 30.6551 7.47776C30.7428 7.61819 30.7779 7.77618 30.5497 8.10971ZM37.747 12.0068C37.8172 11.7434 37.5715 11.603 37.431 11.9014C36.9922 12.6738 36.7815 13.3409 36.5884 13.6393C36.3427 14.1308 36.2373 14.4117 36.132 14.4117C36.132 14.3064 36.0442 14.2186 36.0442 14.1133C35.9389 13.8148 36.132 13.1302 36.0442 12.7265C36.0442 12.235 36.0442 11.7434 36.0442 11.2344C35.9389 11.0413 36.0618 10.6551 36.0618 10.3567C36.2549 9.79492 36.3427 9.25074 36.3427 8.86454C36.3427 8.35547 36.0091 8.37302 35.9038 8.16237C35.7107 8.16237 35.4123 7.96928 35.3069 8.0746L35.0085 8.2677C34.9208 8.37302 34.8154 8.4608 34.8154 8.56612C34.8154 8.75922 34.6925 8.86454 34.6925 8.95232C34.5872 9.16297 34.6223 9.46139 34.6223 9.65449C34.517 9.84758 34.4468 10.3391 34.359 10.5322C34.1659 11.2168 34.1308 11.287 33.8675 12.0243C33.7622 12.235 33.6042 12.5509 33.6042 12.744C33.6042 12.744 33.6744 13.0951 33.9026 12.8318C34.1133 12.5334 34.3941 12.1121 34.4819 11.8137C34.4819 11.6206 34.5521 11.603 34.6574 11.4099C34.6574 11.4977 34.7101 12.7967 34.7101 12.7967C34.7979 13.1829 34.7628 14.0606 34.9734 14.4644C35.0612 14.6575 35.149 14.8857 35.3421 14.991C35.4474 14.991 35.4474 15.0963 35.5527 15.0963C35.7458 15.2894 35.9389 15.2016 36.2373 15.1139C36.3427 15.1139 36.5709 14.6926 36.6762 14.517C37.3257 13.376 37.6768 12.1823 37.747 12.0068ZM36.7288 6.86336C36.7288 6.74048 36.6235 6.47716 36.6235 6.37184L36.4655 6.2314C36.1144 5.96809 35.4649 6.10852 35.3245 6.47716C35.2192 6.63515 35.2192 6.74048 35.3245 6.74048C35.5703 6.98624 35.7283 7.12667 35.9565 7.24955C36.1144 7.24955 36.2198 7.24955 36.3602 7.37243C36.4655 7.37243 36.6235 7.24955 36.7288 6.98624C36.7288 6.98624 36.7288 6.98624 36.7288 6.86336ZM43.3293 15.6932C43.4346 15.6054 43.4346 15.5001 43.4346 15.5001C43.5224 15.3947 43.5224 15.307 43.4346 15.2016C43.3293 15.1139 43.3293 14.9032 43.3293 14.7101C43.3293 14.5521 43.3995 14.4292 43.4872 14.1835C43.8032 13.4287 44.4352 12.3578 44.5229 12.077C44.6283 11.9717 44.6985 11.7434 44.6985 11.6381C44.6985 11.5679 44.6634 11.4099 44.5932 11.3573C44.5581 11.3221 44.4703 11.4099 44.4176 11.3748C44.2596 11.7259 44.0139 12.1296 43.8032 12.5334C43.6628 12.8143 43.5048 13.0951 43.417 13.3233C43.4346 13.1478 43.3995 12.902 43.4346 12.8318V11.9365C43.4346 11.6381 43.4346 11.3397 43.3293 11.0413C43.3293 10.8482 43.2239 10.5498 43.2239 10.2513C43.1362 10.146 43.1362 10.0582 43.0308 10.0582C43.0308 9.95291 42.9255 9.84758 42.8377 9.65449C42.7324 9.46139 42.5393 9.16297 42.3287 8.86454C42.1356 8.75922 41.9425 8.56612 41.644 8.56612C41.5387 8.56612 41.3456 8.65389 41.2403 8.65389C41.0472 8.65389 40.8541 8.65389 40.7488 8.75922C40.6434 8.95232 40.4504 9.05764 40.345 9.16297C40.1519 9.46139 40.0642 9.65449 39.8535 9.95291L39.5551 10.5498C39.5551 10.5498 39.5551 10.6375 39.4673 10.6375V10.4444C39.4673 10.146 39.5551 9.84758 39.5551 9.65449C39.5551 9.35606 39.6604 9.05764 39.7657 8.86454C39.8535 8.75922 39.8535 8.65389 39.8535 8.56612C39.9588 8.4608 39.9588 8.37302 39.9588 8.2677C39.9588 8.16237 39.9588 7.96928 39.7657 7.96928C39.5551 7.77618 39.362 7.77618 39.1689 7.86395H38.8705C38.6598 7.96928 38.572 8.2677 38.572 8.56612V8.65389L38.5194 9.00498C38.2385 9.98802 37.5363 11.7961 37.2028 12.4456C37.0097 12.7616 37.0799 12.9547 37.273 12.9547C37.431 12.9547 37.4661 12.8494 37.5715 12.6563C38.0103 11.9541 38.2385 11.2519 38.5194 10.5322C38.5194 10.5849 38.4667 11.0237 38.4667 11.0764C38.4667 11.6732 38.3789 12.4281 38.3789 13.0249C38.2736 13.5164 38.2736 15.2016 38.2736 15.6932V15.9916C38.3789 16.0969 38.4667 16.29 38.572 16.3953H38.8705C38.9582 16.5007 39.0636 16.5007 39.1689 16.5007C39.362 16.3953 39.5551 16.29 39.6604 15.9916C39.6604 15.6932 39.7657 15.307 39.8535 15.0085C39.9588 14.517 40.0642 12.8318 40.1519 12.4281C40.2573 12.235 40.345 12.0243 40.345 11.8312C40.5557 11.3397 40.7488 10.9359 40.8541 10.5498C40.9419 10.3391 41.0472 10.2513 41.0472 10.0582C41.1525 9.84758 41.2403 9.65449 41.4509 9.46139V9.54916C41.4509 9.84758 41.5387 10.146 41.5387 10.4444V15.0085C41.5387 15.2016 41.7494 15.3947 41.9425 15.5001H42.0478C42.2409 15.6932 42.434 15.7985 42.7324 15.7985C42.8377 15.9038 43.0308 15.9038 43.1362 15.7985C43.2239 15.6932 43.3293 15.6932 43.3293 15.6932ZM50.4738 11.8488C50.3861 11.7786 50.1052 11.9014 50.1052 12.0068C49.7717 12.6738 49.4557 13.1829 49.1222 13.7797C49.0519 13.9026 49.0344 14.0606 48.8764 14.1659C48.8764 13.9728 48.8588 13.7622 48.8588 13.6744C48.8588 13.1127 48.9642 12.5861 48.9642 11.9892C48.9642 11.8839 48.9642 11.7786 48.9642 11.6908C49.0695 11.1817 49.1573 10.6902 49.2626 10.1987C49.2626 9.90025 49.3504 9.60182 49.1573 9.3034C49.2626 9.1103 49.0695 9.00498 48.9642 8.91721C48.8588 8.91721 48.7711 8.91721 48.6658 8.81188C48.3673 8.70656 48.1742 8.70656 47.8758 8.91721C47.8758 9.21563 47.7705 9.4965 47.7705 9.79492C47.7705 10.0056 47.7705 10.1987 47.6652 10.3918C47.5774 10.6902 47.4721 10.7955 47.4721 11.1817C47.4721 11.1817 47.4721 11.287 47.3843 11.3924C47.3843 11.5855 47.279 11.9892 47.1736 12.077C46.7874 12.7791 46.5768 13.4287 46.1906 13.9377C46.0853 14.0255 45.9799 14.1308 45.7868 14.2362C45.6991 14.3239 45.2953 14.2362 45.2953 14.0255C45.19 13.6393 45.2953 13.6393 45.2953 13.1478C45.4884 13.0425 45.4884 12.8494 45.4884 12.6387C45.5938 12.3403 45.7868 11.6908 45.8922 11.3924C45.9799 11.287 46.0853 11.1817 46.0853 11.0939C46.2784 10.7955 46.3837 10.1987 46.6821 9.90025C46.6821 9.90025 46.805 9.7247 46.8928 9.61938C46.8928 9.32096 47.1736 9.14541 47.3843 8.93476C47.3843 8.84699 47.8056 8.54857 47.9109 8.54857C47.9987 8.54857 48.2269 8.4959 48.3147 8.4959C48.2269 8.09216 47.8934 7.8815 47.4896 7.79373C47.3843 7.79373 47.3316 7.75863 47.1912 7.70596C47.1034 7.6533 46.5417 7.81129 46.4364 7.91661C46.331 8.02194 45.9273 8.30281 45.822 8.39058C45.4182 8.89965 45.2251 9.21563 44.9267 9.70715C44.5405 10.3918 44.4703 10.4971 44.2772 11.287C44.0665 11.6908 43.9261 12.744 44.0139 13.2356C44.0139 13.6393 44.2947 14.4468 44.5932 14.7452C44.9794 15.1841 45.6289 15.3245 46.2257 14.9208C46.4188 14.833 46.5241 14.6223 46.6119 14.5346C46.7172 14.4292 46.9805 14.3239 46.9805 14.1308C47.0859 14.0255 47.1736 13.9377 47.279 13.7271C47.279 13.7271 47.279 13.7271 47.3843 13.6393C47.3843 13.7271 47.3843 13.7271 47.3843 13.8324C47.3843 14.2362 47.3843 14.6223 47.279 15.1139C47.279 15.1139 47.279 15.2192 47.279 15.3245C47.279 15.4123 47.3843 15.6229 47.4721 15.6229C47.6652 15.7107 47.7705 15.816 47.8758 15.9214C47.8758 16.0091 47.9636 16.0091 47.9636 16.0091C48.1742 16.29 48.7711 15.7985 48.7711 15.5176C48.7711 15.4123 48.8588 15.3245 48.9642 15.2192C49.0695 15.0261 49.0519 15.0963 49.1397 14.8857C49.245 14.7979 49.3504 14.6926 49.3504 14.5872C49.4381 14.4995 49.7015 13.9904 49.7015 13.7797C49.9121 13.4813 50.035 13.2882 50.1403 12.9898C50.2281 12.8845 50.3861 12.3227 50.4738 12.235C50.5792 12.0243 50.5265 11.8663 50.4738 11.8488Z" fill="#FEFEFE" fill-opacity="0.6"/>
<path d="M71.065 2.87867C70.6613 2.68558 70.3979 2.84357 70.1873 3.31753C70.2926 3.42286 70.0644 3.49307 70.0644 3.68617C70.0644 3.89682 69.9766 4.08992 69.9766 4.30057C69.8713 4.49367 69.8713 4.59899 69.8713 4.80964C69.8713 5.00274 69.7835 5.21339 69.7835 5.51182C69.7835 5.81024 69.6782 6.02089 69.6782 6.33687C69.5729 6.93371 69.5729 7.65344 69.4676 8.16251C69.4676 8.35561 69.4676 8.46093 69.4676 8.67158C69.4676 8.97001 69.3622 9.7775 69.3622 10.0759C69.3622 10.6026 69.3622 11.6207 69.3622 12.1298C69.3622 12.6389 69.3622 13.1304 69.2569 13.6394C69.2569 13.9379 69.1691 14.1836 69.2569 14.482C69.2569 14.6751 69.2569 14.8858 69.2569 15.0789C69.1691 15.3773 69.2569 15.588 69.3622 15.7986C69.3622 15.8864 69.4676 15.8864 69.4676 15.8864C69.6782 15.9917 69.8713 15.7986 70.0644 15.6933C70.0644 15.4826 70.0644 15.3773 69.9766 15.2895C69.8713 15.1842 69.8713 15.1842 69.8713 15.0789C69.9766 14.9911 69.9766 14.7629 69.9766 14.6751C69.8713 14.5698 69.9766 14.482 69.9766 14.3767C69.9766 14.1836 69.9766 14.0783 69.9766 13.8501C69.9766 13.4463 69.9766 12.9373 69.9766 12.5335C69.9766 12.2351 70.0644 11.9367 70.0644 11.6207V11.5154C70.1697 11.4101 70.1697 11.217 70.1697 11.1116C70.1697 10.5148 70.1697 9.07533 70.2751 8.35561C70.2751 7.65344 70.3804 6.63529 70.3804 5.81024C70.3804 5.40649 70.3804 5.00274 70.4857 4.59899C70.4857 4.59899 70.3804 4.49367 70.4857 4.49367C70.591 4.49367 70.591 4.59899 70.591 4.59899C70.8895 5.51182 71.2054 6.93371 71.3985 7.86409C71.4863 8.35561 71.697 9.07533 71.7847 9.58441C71.9076 10.5148 72.2938 11.6207 72.4869 12.5335C72.4869 12.6389 72.4869 12.8319 72.5922 12.9373C72.6976 13.3586 72.8029 13.8501 72.8906 14.2714C72.996 14.482 73.1013 14.5698 73.1891 14.6751C73.5226 14.7629 73.7333 14.8858 73.9263 14.9911C74.0141 15.0789 74.2248 15.0789 74.3301 15.0789C74.5407 15.0789 74.7338 14.9911 74.7338 14.6751C74.7338 14.482 74.7338 14.1836 74.7338 13.9379C74.7338 13.7448 74.7338 13.6394 74.7338 13.5517C74.8392 13.3586 74.8392 13.1304 74.9269 13.0426C74.9269 12.5335 74.9269 12.0245 75.0498 11.5154C75.0498 10.9185 75.0498 10.3041 75.2429 9.68973C75.2429 9.47908 75.2429 9.1631 75.3482 8.97001C75.436 8.46093 75.5413 8.05719 75.5413 7.65344C75.6467 7.35501 75.7344 7.16192 75.7344 6.84594C75.8573 6.54752 75.9626 6.10866 75.9626 5.81024C75.9626 5.72247 76.0504 5.61714 76.0504 5.61714C76.1557 5.51182 76.1557 5.40649 76.1557 5.30116C76.1557 5.21339 76.0504 5.10807 76.0504 5.10807C75.9626 5.00274 75.9626 5.00274 75.8573 4.91497C75.6467 4.91497 75.436 4.80964 75.1376 4.59899C75.0498 4.80964 74.9269 4.91497 74.7338 4.91497C74.6285 4.91497 74.5407 4.91497 74.4354 5.00274C74.2248 5.00274 74.1194 5.21339 74.0141 5.40649V5.51182C74.1194 6.02089 74.0141 6.44219 73.9263 6.93371C73.9263 7.46034 73.821 7.96941 73.7333 8.46093C73.6279 8.97001 73.6279 9.39131 73.6279 9.88283C73.5226 9.98815 73.5226 10.0759 73.5226 10.0759C73.5226 10.2164 73.5226 10.3041 73.3997 10.4095C73.2944 10.0759 73.1891 9.58441 73.1013 9.26843C72.996 8.86468 72.8906 8.35561 72.8029 7.96941C72.5922 7.35501 72.3816 6.54752 72.1885 5.81024C72.0832 5.61714 71.9954 5.10807 71.8725 4.91497C71.6794 4.30057 71.4688 3.58085 71.1879 3.07177C71.1879 3.07177 71.065 2.96645 71.065 2.87867ZM80.0001 9.93549C80.0879 9.68973 79.8421 9.53174 79.6842 9.83017C79.2628 10.6026 79.0522 11.2696 78.8415 11.568C78.5958 12.0596 78.508 12.3404 78.4027 12.3404C78.4027 12.2351 78.2974 12.1473 78.2974 12.042C78.2096 11.7436 78.4027 11.059 78.2974 10.6552C78.2974 10.1637 78.2974 9.67218 78.2974 9.1631C78.2096 8.97001 78.3149 8.58381 78.3149 8.30295C78.508 7.74121 78.5958 7.17947 78.5958 6.79328C78.5958 6.2842 78.2623 6.30176 78.1745 6.09111C77.9638 6.09111 77.6654 5.89801 77.5776 6.00333L77.2792 6.19643C77.1739 6.30176 77.0861 6.38953 77.0861 6.49485C77.0861 6.68795 76.9457 6.79328 76.9457 6.8986C76.8404 7.0917 76.8755 7.39012 76.8755 7.58322C76.7877 7.77632 76.7175 8.26784 76.6122 8.46093C76.4191 9.14555 76.3839 9.21577 76.1206 9.9706C76.0153 10.1637 75.8573 10.4797 75.8573 10.6728C75.8573 10.6728 75.9451 11.0239 76.1733 10.7605C76.3664 10.4621 76.6473 10.0408 76.7526 9.7424C76.7526 9.5493 76.8228 9.53174 76.9106 9.33865C76.9106 9.42642 76.9632 10.7254 76.9632 10.7254C77.0686 11.1116 77.0335 11.9893 77.2266 12.3931C77.3319 12.5862 77.4021 12.8144 77.6127 12.9197C77.7005 12.9197 77.7005 13.025 77.8058 13.025C77.9989 13.2181 78.2096 13.1304 78.508 13.0426C78.5958 13.0426 78.824 12.6213 78.9293 12.4458C79.5964 11.3047 79.9299 10.111 80.0001 9.93549ZM78.9995 4.79209C78.9995 4.66921 78.8767 4.4059 78.8767 4.30057L78.7362 4.16014C78.3676 3.89682 77.7181 4.03726 77.5952 4.4059C77.4723 4.56388 77.4723 4.66921 77.5952 4.66921C77.841 4.93252 77.9814 5.0554 78.2271 5.19584C78.3676 5.19584 78.4905 5.19584 78.6133 5.30116C78.7362 5.30116 78.8767 5.19584 78.9995 4.93252C78.9995 4.93252 78.9995 4.93252 78.9995 4.79209ZM81.7204 11.4627C81.8258 11.568 81.9487 11.8314 82.054 11.8314C82.4402 12.0245 82.6508 12.516 83.037 12.8144C83.1423 12.9197 83.2477 12.9197 83.3354 13.025C83.5461 13.1128 83.511 13.1304 83.5988 13.2357C84.0025 13.5341 84.3185 13.3235 84.6169 13.5166C85.8281 13.5166 87.0394 10.8659 87.2149 10.4797C87.5309 9.81261 87.2676 9.67218 87.0745 9.93549C86.583 11.0765 85.6526 12.2 85.2137 12.2C84.8276 12.2 84.4414 12.0245 84.1078 11.8314C83.7041 11.6207 83.3179 11.3223 82.9492 11.0414C83.4408 10.9185 84.3009 10.4621 85.1435 9.33865C85.3366 9.07533 86.0212 8.05719 86.0212 7.40768C86.0212 7.19703 85.951 6.37197 85.8457 6.17888C85.7579 5.98578 85.4244 5.35383 85.126 5.2485C84.9329 5.16073 84.8276 5.35383 84.6345 5.45915C84.336 5.45915 83.7216 5.6698 83.2652 6.03844C82.9668 6.24909 82.37 6.77572 82.0189 7.17947L82.054 7.03904C82.1242 6.91616 82.2295 6.75817 82.2471 6.68795C83.0897 5.54692 83.669 4.80964 84.0201 4.14258C84.2132 3.75639 84.494 3.26487 84.6696 2.89623C84.8627 2.42226 84.7749 1.70254 84.652 1.21102C84.5116 0.701945 84.0552 0.192871 83.4759 0.192871C82.7561 0.456185 81.5449 1.00037 81.2114 1.68498C80.8076 2.38716 80.9481 2.10629 80.6496 2.984C80.3512 3.68617 80.3337 4.91497 80.3337 5.45915C80.2283 6.14377 80.4039 7.40768 80.4039 8.09229C80.4039 8.28539 79.4208 10.4797 79.2628 10.7079C79.1751 10.8308 79.1751 11.0765 79.3857 11.0765C79.7193 11.059 80.1581 9.91794 80.439 9.42642V9.5493C80.3337 10.3392 80.5619 11.1643 80.4741 11.9542V12.2527C80.4741 12.4633 80.6321 13.9379 80.7374 14.1485C80.8252 14.1485 80.9305 14.2363 80.9305 14.3416C81.1236 14.3416 81.0534 14.6049 81.4396 14.6049C81.6327 14.5698 82.0189 14.7278 82.0189 14.2714C81.9135 13.7799 81.7204 12.0596 81.7204 11.4627ZM83.5285 0.947705C83.9674 1.89564 83.5461 3.26487 82.4402 5.16073C82.0715 5.70491 81.7204 6.31931 81.6678 6.37197C81.7907 5.59959 81.7907 4.4059 82.1417 3.28242C82.2471 2.89623 82.37 2.22917 82.5631 1.93074C82.6684 1.63232 83.0546 1.43922 83.1599 1.1408C83.2652 1.03548 83.3179 1.03548 83.5285 0.947705ZM81.8258 10.3041C81.8258 9.98815 81.8433 8.75936 81.8433 8.26784C81.9487 8.49604 82.3524 8.49604 82.4402 8.39072C82.4402 8.30295 82.5455 8.09229 82.5455 8.09229C82.7386 7.8992 82.6859 7.54811 82.7737 7.46034C82.9844 7.16192 83.3354 6.63529 83.6339 6.44219C83.8445 6.24909 83.9498 6.31931 84.1429 6.21399C84.3536 6.02089 84.4062 6.17888 84.5993 6.07355C84.6871 6.17888 84.5993 6.81083 84.5642 6.88105L84.4238 7.33746C84.1254 7.82898 83.827 8.98756 83.3179 9.39131C83.0195 9.58441 82.9317 9.88283 82.5279 10.0759C82.4402 10.1813 82.3348 10.269 82.2295 10.1813C82.1417 10.1813 81.9135 10.2164 81.8258 10.3041ZM93.4291 9.7775C93.3414 9.70729 93.0605 9.83017 93.0605 9.93549C92.727 10.6026 92.411 11.1116 92.0775 11.7085C91.9897 11.8314 91.9897 11.9893 91.8317 12.0947C91.8317 11.9016 91.8142 11.6909 91.8142 11.6031C91.8142 11.0414 91.9195 10.5148 91.9195 9.91794C91.9195 9.81261 91.9195 9.70729 91.9195 9.61952C92.0072 9.128 92.1126 8.61892 92.2179 8.1274C92.2179 7.82898 92.3057 7.53056 92.1126 7.23213C92.2179 7.03904 92.0072 6.93371 91.9195 6.84594C91.8142 6.84594 91.7088 6.84594 91.6211 6.74061C91.3226 6.63529 91.1295 6.63529 90.8311 6.84594C90.8311 7.14436 90.7258 7.44279 90.7258 7.74121C90.7258 7.93431 90.7258 8.1274 90.6205 8.3205C90.5327 8.61892 90.4274 8.72425 90.4274 9.128C90.4274 9.128 90.4274 9.21577 90.322 9.32109C90.322 9.51419 90.2343 9.91794 90.1289 10.0057C89.7427 10.7079 89.5321 11.3749 89.1459 11.8665C89.0406 11.9542 88.9353 12.0596 88.7422 12.1649C88.6368 12.2527 88.2506 12.1649 88.2506 11.9542C88.1453 11.568 88.2506 11.568 88.2506 11.0765C88.4437 10.9712 88.4437 10.7781 88.4437 10.5674C88.5491 10.269 88.7422 9.61952 88.8475 9.32109C88.9353 9.21577 89.0406 9.128 89.0406 9.02267C89.2337 8.72425 89.339 8.1274 89.6374 7.82898C89.6374 7.82898 89.7427 7.65344 89.8481 7.54811C89.8481 7.24969 90.1289 7.07415 90.322 6.88105C90.322 6.77572 90.7609 6.4773 90.8662 6.4773C90.954 6.4773 91.1646 6.42464 91.27 6.42464C91.1646 6.03844 90.8487 5.81024 90.4449 5.72247C90.3396 5.72247 90.2869 5.68736 90.1465 5.6347C90.0412 5.58203 89.4794 5.75758 89.3917 5.84535C89.2863 5.95067 88.8826 6.23154 88.7773 6.33687C88.3735 6.82839 88.1804 7.14436 87.882 7.63588C87.4958 8.3205 87.4256 8.42583 87.2149 9.21577C87.0218 9.61952 86.8814 10.6728 86.9692 11.1643C86.9692 11.568 87.25 12.3755 87.5485 12.674C87.9347 13.1128 88.5842 13.2532 89.181 12.8495C89.3741 12.7617 89.4619 12.5511 89.5672 12.4633C89.6725 12.358 89.9358 12.2527 89.9358 12.0596C90.0236 11.9542 90.1289 11.8665 90.2343 11.6734C90.2343 11.6734 90.2343 11.6734 90.322 11.568C90.322 11.6734 90.322 11.6734 90.322 11.7611C90.322 12.1649 90.322 12.5511 90.2343 13.0602C90.2343 13.0602 90.2343 13.1479 90.2343 13.2532C90.2343 13.3586 90.322 13.5517 90.4274 13.5517C90.6205 13.6394 90.7258 13.7448 90.8311 13.8501C90.8311 13.9379 90.9189 13.9379 90.9189 13.9379C91.1295 14.2187 91.7088 13.7272 91.7088 13.4463C91.7088 13.3586 91.8142 13.2532 91.9195 13.1479C92.0072 12.9548 91.9897 13.025 92.095 12.8144C92.2003 12.7266 92.2881 12.6213 92.2881 12.516C92.3934 12.4282 92.6568 11.9191 92.6568 11.7085C92.8499 11.4101 92.9903 11.217 93.0956 10.9185C93.1834 10.8308 93.3414 10.269 93.4291 10.1637C93.5345 9.9706 93.4818 9.79506 93.4291 9.7775ZM100.837 9.70729C100.749 9.70729 100.662 9.79506 100.591 10.0759C100.556 10.1813 100.293 10.6026 100.258 10.7079C99.9944 11.3749 99.4327 12.4282 99.2747 12.6915C99.2045 12.7968 98.9412 13.3059 98.7305 13.3937V13.2006C98.7305 12.9022 98.8359 12.516 98.8359 12.2175C98.7305 12.0069 98.7305 11.9191 98.8359 11.7085V10.5499C98.9412 10.4621 98.8359 10.3568 98.8359 10.3568V9.67218C98.9412 9.37376 98.7305 9.07533 98.9412 8.77691C98.9412 8.67158 98.9412 8.67158 98.8359 8.67158V8.07474C98.7305 7.98697 98.7656 7.77632 98.7656 7.68855C98.7656 7.2848 98.7656 6.79328 98.6779 6.38953C98.6779 6.00333 98.6779 5.70491 98.5725 5.40649C98.5725 5.10807 98.4672 4.91497 98.4672 4.70432L98.2917 3.89682C98.1864 3.4053 98.0108 2.82601 97.9055 2.42226C97.8177 2.12384 97.7124 1.73765 97.5193 1.3339C97.414 1.03548 97.3262 0.737054 97.1155 0.438631C96.8171 0.0524369 96.2203 0.157763 96.0272 0.543957V0.737054C96.1325 1.1408 96.2203 1.54455 96.2203 1.93074V2.33449C96.2203 2.82601 96.3256 3.31753 96.3256 3.80905C96.3256 4.31812 96.3958 4.51122 96.3958 5.00274V5.21339C96.5889 5.21339 96.4836 5.30116 96.4836 5.49426C96.3958 5.30116 96.3958 5.30116 96.2905 5.30116C96.2027 5.40649 96.2027 5.40649 96.2027 5.49426H95.9921C95.5005 5.49426 95.2021 5.59959 95.009 5.89801C94.6053 6.19643 94.3069 6.70551 94.0084 7.10925C94.0084 7.19703 93.9207 7.30235 93.9207 7.40768C93.9207 7.49545 93.8153 7.60077 93.8153 7.7061C93.71 7.79387 93.71 7.8992 93.6222 8.00452C93.6222 8.09229 93.6222 8.09229 93.5169 8.19762C93.6222 8.30295 93.4116 8.30295 93.5169 8.39072C93.3238 8.68914 93.2185 8.98756 93.2185 9.28598C93.1132 9.28598 93.2185 9.39131 93.2185 9.39131H93.1132V9.58441C93.0254 9.7775 93.0254 9.98815 93.0254 10.1813V10.6728C93.0254 10.5674 93.0254 10.4797 92.9201 10.4797C92.9201 11.0765 92.9201 11.6734 93.1132 12.1649C93.2185 12.2527 93.2185 12.358 93.3238 12.358C93.4116 12.6564 93.6222 12.8495 93.8153 13.0602V13.1479C93.8153 13.4463 93.9207 13.5517 94.0084 13.7448C94.0084 13.8501 94.1138 13.8501 94.1138 13.8501C94.2191 13.9379 94.3069 13.9379 94.4122 13.9379C94.4122 13.9379 94.5175 13.9379 94.5175 13.8501C94.6053 13.6394 94.7106 13.6394 94.9037 13.6394C95.009 13.7448 95.009 13.7448 95.0968 13.7448H95.5005C95.9043 13.6394 96.2905 13.4463 96.5889 13.0602C96.5889 13.0602 96.6942 12.9548 96.6942 12.8495C96.782 12.8495 96.782 12.7617 96.8873 12.8495C96.8873 12.9548 96.9927 13.1479 96.8873 13.3586C96.782 13.7448 96.9927 14.1485 97.1858 14.5347V14.64C97.2911 14.64 97.3789 14.7454 97.3789 14.8331C97.5895 14.9385 97.6773 15.0438 97.8879 15.1316C98.1688 15.0438 98.3794 14.9385 98.6779 14.7454C98.871 14.5347 98.9763 14.2363 99.1694 14.0432C99.4678 13.6394 100.047 12.4984 100.24 11.9893C100.346 11.7962 101.135 10.1461 101.03 9.84772C101.013 9.79506 100.96 9.70729 100.837 9.70729ZM96.4836 8.30295C96.4836 8.68914 96.3958 9.09289 96.3958 9.58441C96.2905 9.7775 96.2905 9.98815 96.2905 10.1813L95.9921 11.6734C95.9043 11.9542 95.6936 12.358 95.5005 12.6564C95.3952 12.7617 95.2021 12.9548 95.009 12.9548C94.9037 13.0602 94.7984 12.9548 94.7984 12.8495V12.6564C94.7984 12.4633 94.7984 12.358 94.7106 12.2527C94.6053 12.1649 94.6053 12.0596 94.6053 11.9542C94.7106 11.568 94.7106 11.1643 94.7106 10.8659C94.7984 10.1813 94.9037 9.39131 95.009 8.68914C95.0968 8.19762 95.2021 7.68855 95.3952 7.17947L95.6936 6.00333C95.9043 6.00333 96.0974 6.19643 96.3958 6.38953L96.4836 8.30295ZM104.523 9.93549C104.611 9.68973 104.365 9.53174 104.207 9.83017C103.786 10.6026 103.558 11.2696 103.365 11.568C103.119 12.0596 103.014 12.3404 102.926 12.3404C102.926 12.2351 102.821 12.1473 102.821 12.042C102.715 11.7436 102.926 11.059 102.821 10.6552C102.821 10.1637 102.821 9.67218 102.821 9.1631C102.715 8.97001 102.838 8.58381 102.838 8.30295C103.031 7.74121 103.119 7.17947 103.119 6.79328C103.119 6.2842 102.786 6.30176 102.68 6.09111C102.487 6.09111 102.189 5.89801 102.101 6.00333L101.803 6.19643C101.697 6.30176 101.592 6.38953 101.592 6.49485C101.592 6.68795 101.469 6.79328 101.469 6.8986C101.364 7.0917 101.399 7.39012 101.399 7.58322C101.293 7.77632 101.241 8.26784 101.135 8.46093C100.942 9.14555 100.907 9.21577 100.644 9.9706C100.539 10.1637 100.381 10.4797 100.381 10.6728C100.381 10.6728 100.451 11.0239 100.697 10.7605C100.89 10.4621 101.171 10.0408 101.276 9.7424C101.276 9.5493 101.329 9.53174 101.434 9.33865C101.434 9.42642 101.487 10.7254 101.487 10.7254C101.574 11.1116 101.557 11.9893 101.75 12.3931C101.838 12.5862 101.925 12.8144 102.119 12.9197C102.224 12.9197 102.224 13.025 102.329 13.025C102.522 13.2181 102.715 13.1304 103.014 13.0426C103.119 13.0426 103.347 12.6213 103.453 12.4458C104.102 11.3047 104.453 10.111 104.523 9.93549ZM103.523 4.79209C103.523 4.66921 103.4 4.4059 103.4 4.30057L103.242 4.16014C102.891 3.89682 102.241 4.03726 102.119 4.4059C101.996 4.56388 101.996 4.66921 102.119 4.66921C102.364 4.93252 102.505 5.0554 102.733 5.19584C102.891 5.19584 102.996 5.19584 103.137 5.30116C103.242 5.30116 103.4 5.19584 103.523 4.93252C103.523 4.93252 103.523 4.93252 103.523 4.79209ZM104.594 7.16192C104.137 7.65344 104.278 9.21577 104.172 9.70729C104.085 10.4972 104.313 10.3568 104.207 11.2521C104.102 11.8489 104.155 12.4458 104.155 12.9373C104.067 13.2357 104.26 13.5341 104.26 13.8325C104.26 13.8325 104.365 13.8325 104.365 13.9203C104.559 14.131 104.857 14.2187 105.155 14.3241L105.243 14.2187C105.454 14.0256 105.542 13.8325 105.542 13.6394C105.542 13.1304 105.542 12.7442 105.647 12.2351C105.752 11.7436 105.752 11.2521 105.945 10.7605C106.051 10.4621 106.138 10.269 106.244 9.9706C106.332 9.75995 106.332 9.67218 106.437 9.46153C106.542 9.26843 106.63 8.97001 106.735 8.67158C106.735 8.47849 106.841 8.28539 107.034 8.07474C107.034 8.07474 107.139 7.98697 107.227 7.98697V8.37316C107.139 8.97001 107.034 9.56685 107.034 10.0584C106.928 10.8483 106.841 11.6558 106.841 12.3404C106.841 12.6389 106.841 12.8319 106.928 13.1304C106.928 13.2357 107.034 13.341 107.139 13.341L108.017 13.6394C108.227 13.7272 108.315 13.6394 108.42 13.4288C108.42 13.2357 108.526 13.2357 108.614 13.1304C108.614 12.8319 108.614 12.5335 108.719 12.3404C108.824 11.7436 108.912 11.1467 109.21 10.5499C109.21 10.3568 109.316 10.269 109.421 10.0584C109.421 9.75995 109.509 9.56685 109.702 9.26843C109.702 9.1631 109.807 9.07533 109.807 8.97001C109.913 8.67158 110.106 8.47849 110.299 8.18006C110.404 8.07474 110.509 7.88164 110.703 7.77632C110.808 7.88164 110.808 8.07474 110.896 8.18006C110.896 8.37316 111.001 8.58381 111.001 8.77691C111.106 8.97001 111.106 9.26843 111.106 9.56685V10.6552C111.106 11.059 111.194 11.4452 111.194 11.9542V12.7617C111.089 13.1479 111.141 13.1304 111.106 13.5166C111.089 13.7272 111.194 14.131 111.492 14.3241C111.598 14.4294 111.791 14.5172 111.984 14.6225C112.195 14.7278 112.282 14.7278 112.493 14.7278C112.581 14.6225 112.686 14.6225 112.792 14.5172C112.792 14.4294 112.879 14.4294 112.879 14.3241C112.879 13.3761 112.949 12.9548 112.932 12.0947C113.283 11.3925 113.652 10.743 113.722 10.6201C113.81 10.4797 114.003 10.0584 114.003 9.95305C114.003 9.81261 113.88 9.70729 113.757 9.65462C113.529 10.1637 113.265 10.5499 112.879 11.2872V10.6552C112.792 10.3568 112.792 9.9706 112.792 9.67218C112.686 9.37376 112.739 9.05778 112.634 8.65403C112.528 8.35561 112.388 7.93431 112.195 7.63588C112.089 7.33746 111.598 7.2848 111.387 7.0917C111.299 7.0917 111.299 6.98637 111.194 6.98637C110.808 6.98637 110.509 6.98637 110.211 7.2848C109.913 7.58322 109.702 7.98697 109.509 8.37316C109.21 8.77691 109.017 9.1631 108.912 9.67218C108.912 9.67218 108.912 9.75995 108.824 9.75995C108.824 9.26843 108.912 8.67158 108.824 8.18006C108.912 7.88164 108.824 7.58322 108.719 7.2848C108.614 6.8986 108.122 6.68795 107.736 6.79328C107.332 6.98637 107.139 7.17947 106.928 7.47789C106.542 7.98697 106.244 8.58381 106.051 9.1631C106.051 9.26843 106.051 9.37376 105.945 9.46153C105.945 9.56685 105.945 9.67218 105.84 9.67218V8.07474C105.84 7.77632 105.752 7.39012 105.647 7.0917C105.542 6.8986 105.348 6.79328 105.155 6.79328C105.103 6.81083 105.033 6.84594 104.997 6.84594L104.594 7.16192ZM116.144 8.07474C116.039 8.18006 116.004 8.23273 115.986 8.28539C115.319 9.51419 115.6 11.1994 116.566 11.4452C116.478 11.9191 116.39 12.3053 116.197 12.7968C116.004 13.183 115.969 13.6219 115.67 13.9203C115.477 14.1134 115.179 14.3065 114.88 14.1134C114.775 13.815 114.687 13.4112 114.687 13.1128C114.687 12.8144 114.687 12.6213 114.775 12.3229V11.8314C114.88 11.5329 115.074 10.3568 115.179 10.0584C115.179 9.86528 115.284 9.65462 115.284 9.46153C115.284 9.1631 115.372 8.97001 115.477 8.67158C115.477 8.56626 115.688 8.42583 115.688 8.23273C115.688 8.1274 115.828 7.8992 115.916 7.79387V7.7061C115.916 7.49545 115.793 7.60077 115.6 7.49545C115.39 7.49545 115.038 7.7061 114.933 7.79387C114.74 8.00452 114.301 8.39072 114.196 8.68914C113.81 9.37376 113.634 9.72484 113.529 10.5148C113.423 10.7079 113.336 11.5154 113.336 11.8489C113.23 12.1473 113.388 12.5335 113.388 12.8144C113.388 13.2181 113.494 13.6219 113.687 14.0081C113.687 14.0081 113.792 14.0081 113.792 14.1134C113.792 14.2187 113.897 14.3065 113.985 14.4118C114.091 14.6225 114.284 14.8156 114.477 14.9209C114.687 15.114 114.986 15.2193 115.179 15.3247H115.477C115.583 15.3247 115.776 15.2193 115.881 15.2193C116.074 15.114 116.267 15.0087 116.373 14.8156C116.566 14.7103 116.671 14.5172 116.864 14.4118C117.022 14.3065 116.987 14.0607 117.163 13.9203C117.057 13.815 117.163 13.815 117.268 13.7097C117.268 13.6219 117.268 13.5166 117.356 13.5166C117.461 13.5166 117.461 13.4112 117.461 13.3235C117.566 13.2181 117.566 13.1128 117.566 13.025C117.566 12.9197 117.566 12.8144 117.654 12.7266C117.759 12.7266 117.759 12.5335 117.847 12.4282C117.952 12.1298 117.952 11.8314 118.058 11.5329L118.093 11.4101C118.409 11.3223 118.707 11.0063 118.76 10.9536C118.813 10.9361 119.111 10.5323 119.164 10.2339C119.181 10.1286 118.971 9.91794 118.83 10.111C118.813 10.1286 118.725 10.3743 118.514 10.6026C118.426 10.6728 118.286 10.8659 118.163 10.901L118.251 9.72484C118.146 9.42642 118.075 8.82957 117.865 8.63648C117.672 8.33805 117.461 8.18006 117.163 8.07474C116.969 7.98697 117.005 7.8992 116.811 7.79387C116.724 7.79387 116.618 7.79387 116.618 7.8992H116.32C116.32 8.00452 116.215 8.00452 116.144 8.07474ZM116.671 10.4446C116.636 10.6377 116.618 10.8132 116.601 10.9536C115.916 10.5674 116.004 8.97001 116.531 8.67158C116.566 8.75936 116.618 8.79446 116.618 8.79446C116.811 9.37376 116.671 9.86528 116.671 10.4446ZM118.883 7.60077C118.69 8.19762 118.795 8.58381 118.795 9.18066C118.795 9.47908 118.9 9.68973 118.9 9.98815V10.4797C118.9 11.2521 118.988 12.2351 119.093 12.9548C119.199 13.4815 119.269 14.9911 120.077 14.9209C120.27 14.9034 120.533 14.798 120.849 14.5172C121.235 14.2012 121.481 13.973 121.656 13.6219C121.972 13.025 122.13 12.0596 122.745 9.65462C122.85 9.3562 122.85 9.14555 122.938 8.95245V8.65403L123.201 8.05719C123.201 7.96941 123.324 7.82898 123.219 7.74121C123.465 7.16192 123.991 6.93371 123.728 6.056C123.693 5.89801 123.236 5.68736 122.868 5.6698C122.253 5.61714 122.341 6.07355 122.165 6.61773V6.8986C122.165 7.53056 122.025 8.84713 121.814 10.1461C121.569 11.8138 121.182 13.499 120.937 13.6746C120.656 13.8852 120.673 13.3586 120.586 11.7611C120.586 11.6734 120.586 11.568 120.48 11.4627C120.48 11.2696 120.393 10.9712 120.48 10.6728C120.48 10.5674 120.393 10.5674 120.393 10.4797C120.287 10.1813 120.287 9.88283 120.34 7.2848C120.27 7.07415 119.585 7.00393 119.287 7.19703L118.883 7.60077ZM129.942 9.7775C129.837 9.70729 129.556 9.83017 129.556 9.93549C129.222 10.6026 128.906 11.1116 128.573 11.7085C128.503 11.8314 128.485 11.9893 128.327 12.0947C128.327 11.9016 128.309 11.6909 128.309 11.6031C128.309 11.0414 128.415 10.5148 128.415 9.91794C128.415 9.81261 128.415 9.70729 128.415 9.61952C128.52 9.128 128.608 8.61892 128.713 8.1274C128.713 7.82898 128.819 7.53056 128.608 7.23213C128.713 7.03904 128.52 6.93371 128.415 6.84594C128.309 6.84594 128.222 6.84594 128.116 6.74061C127.818 6.63529 127.625 6.63529 127.326 6.84594C127.326 7.14436 127.221 7.44279 127.221 7.74121C127.221 7.93431 127.221 8.1274 127.133 8.3205C127.028 8.61892 126.923 8.72425 126.923 9.128C126.923 9.128 126.923 9.21577 126.835 9.32109C126.835 9.51419 126.73 9.91794 126.624 10.0057C126.238 10.7079 126.027 11.3749 125.641 11.8665C125.536 11.9542 125.448 12.0596 125.237 12.1649C125.15 12.2527 124.746 12.1649 124.746 11.9542C124.641 11.568 124.746 11.568 124.746 11.0765C124.939 10.9712 124.939 10.7781 124.939 10.5674C125.044 10.269 125.237 9.61952 125.343 9.32109C125.448 9.21577 125.536 9.128 125.536 9.02267C125.729 8.72425 125.834 8.1274 126.133 7.82898C126.133 7.82898 126.256 7.65344 126.343 7.54811C126.343 7.24969 126.624 7.07415 126.835 6.88105C126.835 6.77572 127.256 6.4773 127.362 6.4773C127.449 6.4773 127.678 6.42464 127.765 6.42464C127.678 6.03844 127.344 5.81024 126.94 5.72247C126.852 5.72247 126.782 5.68736 126.642 5.6347C126.554 5.58203 125.992 5.75758 125.887 5.84535C125.782 5.95067 125.378 6.23154 125.273 6.33687C124.886 6.82839 124.676 7.14436 124.377 7.63588C123.991 8.3205 123.921 8.42583 123.728 9.21577C123.517 9.61952 123.377 10.6728 123.482 11.1643C123.482 11.568 123.763 12.3755 124.044 12.674C124.43 13.1128 125.079 13.2532 125.676 12.8495C125.869 12.7617 125.975 12.5511 126.063 12.4633C126.168 12.358 126.431 12.2527 126.431 12.0596C126.537 11.9542 126.624 11.8665 126.73 11.6734C126.73 11.6734 126.73 11.6734 126.835 11.568C126.835 11.6734 126.835 11.6734 126.835 11.7611C126.835 12.1649 126.835 12.5511 126.73 13.0602C126.73 13.0602 126.73 13.1479 126.73 13.2532C126.73 13.3586 126.835 13.5517 126.923 13.5517C127.133 13.6394 127.221 13.7448 127.326 13.8501C127.326 13.9379 127.414 13.9379 127.414 13.9379C127.625 14.2187 128.222 13.7272 128.222 13.4463C128.222 13.3586 128.309 13.2532 128.415 13.1479C128.52 12.9548 128.503 13.025 128.59 12.8144C128.696 12.7266 128.801 12.6213 128.801 12.516C128.889 12.4282 129.152 11.9191 129.152 11.7085C129.363 11.4101 129.486 11.217 129.591 10.9185C129.679 10.8308 129.837 10.269 129.942 10.1637C130.03 9.9706 129.977 9.79506 129.942 9.7775Z" fill="#FEFEFE" fill-opacity="0.6"/>
</g>
<defs>
<clipPath id="clip0_3_125">
<rect width="130" height="26.9283" fill="white"/>
</clipPath>
</defs>
</svg>
