<svg width="46" height="48" viewBox="0 0 46 48" fill="none" xmlns="http://www.w3.org/2000/svg">
<path fill-rule="evenodd" clip-rule="evenodd" d="M24.1731 15.4276C23.8582 14.0107 26.1672 14.0632 27.8989 15.3227C30.0504 16.8969 30.2603 19.7307 29.3682 20.098C28.9484 20.3079 28.5811 20.1505 28.3712 19.8881C27.9514 19.2059 28.3187 17.1593 26.1672 16.3197C25.5899 16.0573 24.3305 16.0048 24.1731 15.4276ZM7.1707 13.6434C6.80336 10.9671 8.37766 9.02548 9.89947 8.13339C10.7391 7.60862 12.051 7.18881 13.258 7.60862C14.8323 8.23834 18.0333 12.8038 18.6106 14.6405C19.4502 17.3168 15.6194 17.2643 15.7768 19.9406C15.9343 21.8822 17.8759 24.3486 18.7155 25.2932C19.2928 25.9229 20.1849 26.6576 20.972 27.1823C27.0593 31.4854 26.2196 26.9199 28.8959 26.2902C30.7326 25.8179 32.9366 27.7596 34.5109 28.914L36.7149 30.7507C37.5546 31.6953 37.5546 32.5874 36.9773 33.8468C36.1377 35.5786 34.5634 37.0479 32.4643 37.6776C30.6277 38.2549 28.2138 36.7855 26.4296 35.8409C23.6483 34.4241 21.2344 32.8498 18.9254 30.9606C17.6135 29.8586 16.459 28.6517 15.2521 27.4447L12.8382 24.5585C11.1589 22.302 7.53803 16.4247 7.1707 13.6434ZM23.0711 11.7018C22.5988 9.34034 28.4237 11.282 30.1554 12.9612C32.1495 14.7979 33.5663 17.1593 33.3564 20.203C33.2515 21.8822 32.097 21.2525 31.9921 21.1475C31.1524 20.3079 32.7267 14.0107 24.9077 12.4889C24.278 12.3315 23.2285 12.3315 23.0711 11.7018ZM22.0215 8.18586C21.3918 6.55909 23.8582 7.03138 24.4879 7.13633C28.0038 7.50367 30.1554 8.50072 32.6742 10.5473C33.8287 11.4919 35.2456 13.6434 35.8753 15.0603C36.6625 16.9494 37.1872 19.2584 37.1347 21.5673C37.0823 22.1971 37.0298 22.7218 36.3476 22.7743C35.0357 22.8268 35.6654 20.9901 34.9832 18.3663C33.4614 12.3315 29.5257 9.4453 23.4909 8.65815C22.9661 8.60567 22.179 8.65815 22.0215 8.18586ZM12.2609 47.6481C12.5233 47.4382 14.7273 45.0243 14.9897 44.7094C15.3045 44.4471 15.462 44.3421 15.7244 44.0273C18.9254 40.6163 17.9808 41.246 22.8612 41.246C27.689 41.2985 33.3564 40.7212 37.6595 38.8846C40.2833 37.7301 42.1725 35.7885 43.2745 33.1122C45.6359 27.3922 45.531 19.3109 44.3765 12.9612C44.0616 11.3344 43.7468 9.91758 43.0646 8.5532C42.5923 7.60862 41.9626 6.71652 41.2279 6.03433C41.018 5.82442 40.8081 5.56204 40.5982 5.35213C38.5516 3.51546 35.2981 2.46593 32.6742 1.94117C26.2196 0.57678 18.4531 0.209445 12.2084 2.15107C9.1648 3.04317 6.54098 4.46004 4.91421 6.24423C2.60525 8.71063 2.02801 10.7047 1.45077 14.1682C0.296287 20.6228 0.348763 30.8032 4.33697 35.6835L5.01917 36.4707C8.58756 39.9866 11.8936 39.0945 12.2084 42.0332C12.3659 43.5025 12.2609 46.0214 12.2609 47.6481Z" fill="white"/>
</svg>
